<svg xmlns="http://www.w3.org/2000/svg" version="1.1" xmlns:xlink="http://www.w3.org/1999/xlink" viewBox="0 0 9.09330800285645 3.9491209315912066"><g transform="matrix(1,0,0,1,1.5906603490844748,1.6190604657956034)"><rect width="9.09330800285645" height="9.09330800285645" x="-1.5906603490844748" y="-4.191154001428225" fill="#fffcfa"></rect><g transform="matrix(1,0,0,1,0,0)"><g clip-path="url(#SvgjsClipPath1001)"><path d=" M -1.0999999999999996 -1.128400116711128 L 7.0119873046875 -1.128400116711128 L 7.0119873046875 1.8394001167111278 L -1.0999999999999996 1.8394001167111278 Z" fill="#c81818" transform="matrix(1,0,0,1,0,0)" fill-rule="nonzero"></path></g></g><g transform="matrix(1,0,0,1,0,0)"><path d=" M 0.4 0.019999999999999907 Q 0.245 0.019999999999999907 0.245 0.31899999999999995 L 0.245 0.39799999999999996 Q 0.245 0.5399999999999999 0.28600000000000003 0.6204999999999999 Q 0.327 0.701 0.40700000000000003 0.701 Q 0.517 0.701 0.609 0.487 L 0.627 0.487 L 0.62 0.71 L 0.609 0.71 Q 0.603 0.699 0.598 0.6945 Q 0.593 0.69 0.5835 0.69 Q 0.5740000000000001 0.69 0.511 0.7055 Q 0.448 0.721 0.383 0.721 Q 0.22 0.721 0.1305 0.633 Q 0.041 0.5449999999999999 0.041 0.36849999999999994 Q 0.041 0.19199999999999995 0.1345 0.09599999999999997 Q 0.228 0 0.386 0 Q 0.447 0 0.5055000000000001 0.015499999999999958 Q 0.5640000000000001 0.030999999999999917 0.5740000000000001 0.030999999999999917 Q 0.584 0.030999999999999917 0.589 0.026499999999999968 Q 0.594 0.02199999999999991 0.6 0.010999999999999899 L 0.611 0.010999999999999899 L 0.619 0.22799999999999998 L 0.601 0.22799999999999998 Q 0.556 0.127 0.5085000000000001 0.0734999999999999 Q 0.461 0.019999999999999907 0.4 0.019999999999999907 M 1.10198291015625 0.692 L 1.02898291015625 0.476 L 0.83098291015625 0.476 L 0.75398291015625 0.692 L 0.82898291015625 0.692 L 0.82898291015625 0.711 L 0.67598291015625 0.711 L 0.67598291015625 0.692 L 0.72298291015625 0.692 L 0.97798291015625 0.0050000000000000044 L 1.0599829101562501 0.0050000000000000044 L 1.31198291015625 0.692 L 1.3579829101562502 0.692 L 1.3579829101562502 0.711 L 1.03098291015625 0.711 L 1.03098291015625 0.692 L 1.10198291015625 0.692 M 0.93398291015625 0.19199999999999995 L 0.83998291015625 0.45399999999999996 L 1.02098291015625 0.45399999999999996 L 0.93398291015625 0.19199999999999995 M 1.38895263671875 0.010999999999999899 L 1.69395263671875 0.010999999999999899 L 1.69395263671875 0.029999999999999916 L 1.63895263671875 0.029999999999999916 L 1.63895263671875 0.346 L 1.64695263671875 0.344 L 1.92895263671875 0.029999999999999916 L 1.84995263671875 0.029999999999999916 L 1.84995263671875 0.010999999999999899 L 2.02495263671875 0.010999999999999899 L 2.02495263671875 0.029999999999999916 L 1.96495263671875 0.029999999999999916 L 1.79295263671875 0.22199999999999998 L 2.03295263671875 0.692 L 2.08695263671875 0.692 L 2.08695263671875 0.711 L 1.7659526367187501 0.711 L 1.7659526367187501 0.692 L 1.81295263671875 0.692 L 1.64795263671875 0.37299999999999994 L 1.63895263671875 0.37499999999999994 L 1.63895263671875 0.692 L 1.69395263671875 0.692 L 1.69395263671875 0.711 L 1.38895263671875 0.711 L 1.38895263671875 0.692 L 1.44395263671875 0.692 L 1.44395263671875 0.029999999999999916 L 1.38895263671875 0.029999999999999916 L 1.38895263671875 0.010999999999999899 M 2.11896142578125 0.010999999999999899 L 2.63896142578125 0.010999999999999899 L 2.64896142578125 0.20899999999999996 L 2.63096142578125 0.20899999999999996 Q 2.58896142578125 0.10799999999999998 2.54296142578125 0.07050000000000001 Q 2.49696142578125 0.03299999999999992 2.40796142578125 0.03299999999999992 L 2.37296142578125 0.03299999999999992 L 2.37296142578125 0.34199999999999997 L 2.40696142578125 0.34199999999999997 Q 2.45396142578125 0.34199999999999997 2.48596142578125 0.30649999999999994 Q 2.51796142578125 0.27099999999999996 2.53096142578125 0.21099999999999997 L 2.54596142578125 0.21099999999999997 L 2.54596142578125 0.5069999999999999 L 2.52896142578125 0.5069999999999999 Q 2.5109614257812503 0.43199999999999994 2.48046142578125 0.39999999999999997 Q 2.44996142578125 0.36799999999999994 2.39696142578125 0.36799999999999994 L 2.37296142578125 0.36799999999999994 L 2.37296142578125 0.689 L 2.41096142578125 0.689 Q 2.5029614257812502 0.689 2.56746142578125 0.634 Q 2.63196142578125 0.579 2.65596142578125 0.493 L 2.67596142578125 0.493 L 2.6679614257812503 0.711 L 2.11896142578125 0.711 L 2.11896142578125 0.689 L 2.17796142578125 0.689 L 2.17796142578125 0.03299999999999992 L 2.11896142578125 0.03299999999999992 L 2.11896142578125 0.010999999999999899 M 3.3019775390625 0.019999999999999907 Q 3.1469775390625 0.019999999999999907 3.1469775390625 0.31899999999999995 L 3.1469775390625 0.39799999999999996 Q 3.1469775390625 0.5399999999999999 3.1879775390625 0.6204999999999999 Q 3.2289775390625 0.701 3.3089775390625 0.701 Q 3.4189775390625 0.701 3.5109775390625 0.487 L 3.5289775390625 0.487 L 3.5219775390625 0.71 L 3.5109775390625 0.71 Q 3.5049775390624998 0.699 3.4999775390625 0.6945 Q 3.4949775390625 0.69 3.4854775390625 0.69 Q 3.4759775390625 0.69 3.4129775390625 0.7055 Q 3.3499775390625 0.721 3.2849775390625 0.721 Q 3.1219775390625 0.721 3.0324775390625 0.633 Q 2.9429775390625 0.5449999999999999 2.9429775390625 0.36849999999999994 Q 2.9429775390625 0.19199999999999995 3.0364775390625 0.09599999999999997 Q 3.1299775390625 0 3.2879775390625 0 Q 3.3489775390625 0 3.4074775390625 0.015499999999999958 Q 3.4659775390625 0.030999999999999917 3.4759775390625 0.030999999999999917 Q 3.4859775390625 0.030999999999999917 3.4909775390625 0.026499999999999968 Q 3.4959775390625 0.02199999999999991 3.5019775390625 0.010999999999999899 L 3.5129775390624998 0.010999999999999899 L 3.5209775390624998 0.22799999999999998 L 3.5029775390625 0.22799999999999998 Q 3.4579775390625 0.127 3.4104775390625 0.0734999999999999 Q 3.3629775390625 0.019999999999999907 3.3019775390625 0.019999999999999907 M 3.61297998046875 0.010999999999999899 L 3.92497998046875 0.010999999999999899 L 3.92497998046875 0.029999999999999916 L 3.86697998046875 0.029999999999999916 L 3.86697998046875 0.33999999999999997 L 4.06597998046875 0.33999999999999997 L 4.06597998046875 0.029999999999999916 L 4.00697998046875 0.029999999999999916 L 4.00697998046875 0.010999999999999899 L 4.31997998046875 0.010999999999999899 L 4.31997998046875 0.029999999999999916 L 4.2609799804687505 0.029999999999999916 L 4.2609799804687505 0.692 L 4.31997998046875 0.692 L 4.31997998046875 0.711 L 4.00697998046875 0.711 L 4.00697998046875 0.692 L 4.06597998046875 0.692 L 4.06597998046875 0.36599999999999994 L 3.86697998046875 0.36599999999999994 L 3.86697998046875 0.692 L 3.92497998046875 0.692 L 3.92497998046875 0.711 L 3.61297998046875 0.711 L 3.61297998046875 0.692 L 3.67197998046875 0.692 L 3.67197998046875 0.029999999999999916 L 3.61297998046875 0.029999999999999916 L 3.61297998046875 0.010999999999999899 M 4.36600341796875 0.010999999999999899 L 4.67100341796875 0.010999999999999899 L 4.67100341796875 0.029999999999999916 L 4.61600341796875 0.029999999999999916 L 4.61600341796875 0.692 L 4.67100341796875 0.692 L 4.67100341796875 0.711 L 4.36600341796875 0.711 L 4.36600341796875 0.692 L 4.42100341796875 0.692 L 4.42100341796875 0.029999999999999916 L 4.36600341796875 0.029999999999999916 L 4.36600341796875 0.010999999999999899 M 4.71698388671875 0.010999999999999899 L 5.23698388671875 0.010999999999999899 L 5.24698388671875 0.20899999999999996 L 5.22898388671875 0.20899999999999996 Q 5.18698388671875 0.10799999999999998 5.14098388671875 0.07050000000000001 Q 5.09498388671875 0.03299999999999992 5.00598388671875 0.03299999999999992 L 4.97098388671875 0.03299999999999992 L 4.97098388671875 0.34199999999999997 L 5.00498388671875 0.34199999999999997 Q 5.05198388671875 0.34199999999999997 5.08398388671875 0.30649999999999994 Q 5.11598388671875 0.27099999999999996 5.12898388671875 0.21099999999999997 L 5.14398388671875 0.21099999999999997 L 5.14398388671875 0.5069999999999999 L 5.12698388671875 0.5069999999999999 Q 5.10898388671875 0.43199999999999994 5.07848388671875 0.39999999999999997 Q 5.04798388671875 0.36799999999999994 4.99498388671875 0.36799999999999994 L 4.97098388671875 0.36799999999999994 L 4.97098388671875 0.689 L 5.00898388671875 0.689 Q 5.10098388671875 0.689 5.16548388671875 0.634 Q 5.22998388671875 0.579 5.25398388671875 0.493 L 5.27398388671875 0.493 L 5.26598388671875 0.711 L 4.71698388671875 0.711 L 4.71698388671875 0.689 L 4.77598388671875 0.689 L 4.77598388671875 0.03299999999999992 L 4.71698388671875 0.03299999999999992 L 4.71698388671875 0.010999999999999899 M 5.34100732421875 0.010999999999999899 L 5.86100732421875 0.010999999999999899 L 5.87100732421875 0.21899999999999997 L 5.85300732421875 0.21899999999999997 Q 5.81600732421875 0.11099999999999999 5.76750732421875 0.07199999999999995 Q 5.71900732421875 0.03299999999999992 5.62300732421875 0.03299999999999992 L 5.59500732421875 0.03299999999999992 L 5.59500732421875 0.358 L 5.64000732421875 0.358 Q 5.68800732421875 0.358 5.72000732421875 0.32299999999999995 Q 5.75200732421875 0.288 5.76400732421875 0.22699999999999998 L 5.77900732421875 0.22699999999999998 L 5.77900732421875 0.5229999999999999 L 5.76200732421875 0.5229999999999999 Q 5.74600732421875 0.44799999999999995 5.71750732421875 0.416 Q 5.68900732421875 0.38399999999999995 5.64000732421875 0.38399999999999995 L 5.59500732421875 0.38399999999999995 L 5.59500732421875 0.689 L 5.71900732421875 0.689 L 5.71900732421875 0.711 L 5.34100732421875 0.711 L 5.34100732421875 0.689 L 5.40000732421875 0.689 L 5.40000732421875 0.03299999999999992 L 5.34100732421875 0.03299999999999992 L 5.34100732421875 0.010999999999999899" fill="#ffffff" fill-rule="nonzero"></path></g><g transform="matrix(1,0,0,1,0,0)"></g></g><defs><clipPath id="SvgjsClipPath1001"><path d=" M -1.0999999999999996 -1.128400116711128 h 8.1119873046875 v 2.9678002334222557 h -8.1119873046875 Z"></path></clipPath></defs></svg>